# xmcd CD database file
#
# Track frame offsets:
#	150
#	13050
#	36343
#	51833
#	67074
#	84057
#	106489
#	132736
#	152153
#	171136
#	185395
#	214464
#	233528
#	252699
#	268569
#	284227
#	308056
#
# Disc length: 4379 seconds
#
# Revision: 0
# Processed by: cddbd v1.4PL0 Copyright (c) Steve Scherf et al.
# Submitted via: CDex 1.51
#
DISCID=01111911
DTITLE=Ramblin Conrad - Citizen of the world
DYEAR=1999
DGENRE=Blues
TTITLE0=Reason to belive
TTITLE1=Wraggle toggle gypsies
TTITLE2=Forty five years
TTITLE3=Cakewalk into town
TTITLE4=Star of the country town
TTITLE5=Woodstock
TTITLE6=The world keep on turning
TTITLE7=The Pilgrim
TTITLE8=Nobody knows you when
TTITLE9=Ballad of st annes reel
TTITLE10=Spoonfull
TTITLE11=Oh Susanna
TTITLE12=Mr Tambourine man
TTITLE13=Messin eith the kid
TTITLE14=Aint she sweet
TTITLE15=Lasting thing on my mind
TTITLE16=Guitar medly
EXTD=YEAR: 1999
EXTT0=
EXTT1=
EXTT2=
EXTT3=
EXTT4=
EXTT5=
EXTT6=
EXTT7=
EXTT8=
EXTT9=
EXTT10=
EXTT11=
EXTT12=
EXTT13=
EXTT14=
EXTT15=
EXTT16=
PLAYORDER=
